<?xml version="1.0" encoding="utf-8"?>
<svg viewBox="142.5 28 74 74" xmlns="http://www.w3.org/2000/svg" class="svgImg">
  <path fill-rule="evenodd" d="    M 218.9895725250244,61.239581763744354    C 219.65623915195465,51.2395755648613 237.32290476560593,56.90624004602432 238.98957133293152,70.90624302625656    C 224.98957216739655,59.57291406393051 218.9895725250244,71.90624934434891 218.9895725250244,61.239581763744354    Z    M 218.9895725250244,71.90624934434891    C 218.9895725250244,71.90624934434891 231.98957175016403,68.23958325386047 235.32290488481522,76.57290750741959    C 230.65623849630356,76.23957681655884 226.65623873472214,87.23957508802414 217.98957258462906,79.23958152532578    C 220.65623909235,74.90623980760574 218.9895725250244,71.90624934434891 218.9895725250244,71.90624934434891    Z    M 164.322909116745,80.90624922513962    C 177.65624165534973,93.23957026004791 205.32290667295456,87.23957508802414 214.989572763443,69.23957532644272    C 217.98957258462906,100.90624737739563 156.65624290704727,117.57291013002396 164.322909116745,80.90624922513962    Z    M 190.98957419395447,57.07291251420975    C 191.3229075074196,50.739572405815125 205.1562471985817,54.90624165534973 205.1562471985817,66.90624624490738    C 205.1562471985817,78.90623658895493 192.15624797344208,85.40624916553497 191.82291465997696,75.40624296665192    C 191.48958134651184,68.4062414765358 196.1562477350235,70.73957055807114 196.1562477350235,67.40624940395355    C 196.1562477350235,64.07291400432587 190.65624088048935,66.4062430858612 190.98957419395447,57.07291251420975    Z    M 212.15624678134918,61.90624314546585    C 206.65623992681503,55.90624797344208 206.65623992681503,45.90624177455902 184.15624845027924,42.906237065792084    C 210.15624690055847,17.40624690055847 219.65623915195465,55.406244814395905 212.15624678134918,61.90624314546585    Z    M 161.65624260902405,96.40624743700027    C 139.65624392032623,88.40623962879181 129.7021541595459,14.36903291940689 190.15624809265137,30.906246721744537    C 145.65624356269836,51.906236946582794 155.15623581409454,77.40624135732651 161.65624260902405,96.40624743700027    Z    M 172.15624916553497,22.906238913536072    C 170.65624207258224,23.906245231628418 169.6562421321869,2.4062376022338867 179.65624153614044,1.906248688697815    C 189.156248152256,1.4062455296516418 187.65624105930328,18.90624213218689 187.65624105930328,18.90624213218689    C 187.65624105930328,18.90624213218689 177.65624165534973,19.906248450279236 172.15624916553497,22.906238913536072    Z    M 91.65624678134918,42.572906374931335    C 91.32291346788406,43.23958200216293 88.65624696016312,41.57291430234909 0,0    C 0,0 0,0 0,0    C 0,0 148.98957669734955,0 0,39.5729159116745    C 148.98957669734955,39.5729159116745 122.32291162014008,11.90624064207077 91.65624678134918,42.572906374931335    Z    M 139.65624392032623,27.239580631256104    C 134.98957753181458,24.572906613349915 129.32291120290756,24.572906613349915 129.32291120290756,24.572906613349915    C 129.32291120290756,24.572906613349915 116.65624529123306,11.572909951210022 133.6562442779541,5.572914779186249    C 132.32291102409363,11.239579260349274 145.65624356269836,14.906245350837708 139.65624392032623,27.239580631256104    Z    M 72.98958122730255,8.572905242443085    C 72.98958122730255,8.572905242443085 105.32291263341904,19.572903513908386 93.32291334867477,32.90624511241913    C 74.98958110809326,42.572906374931335 72.98958122730255,8.572905242443085 72.98958122730255,8.572905242443085    Z    M 81.65624737739563,38.57290959358215    C 79.98958081007004,41.23956936597824 52.65624910593033,44.57290476560593 68.65624815225601,10.572903633117676    C 71.65624797344208,35.906249821186066 84.98958051204681,31.572908103466034 81.65624737739563,38.57290959358215    Z    M 63.656248450279236,46.90624809265137    C 63.656248450279236,46.90624809265137 30.656236052513123,82.57290267944336 3.322904348373413,46.90624809265137    C 1.656237781047821,43.57291269302368 3.6562376618385315,44.23957407474518 3.6562376618385315,44.23957407474518    C 3.6562376618385315,44.23957407474518 24.65623641014099,78.90623658895493 63.32291513681412,44.57290476560593    C 63.989581763744354,44.57290476560593 63.656248450279236,46.90624809265137 63.656248450279236,46.90624809265137    Z    M 84.6562471985817,44.57290476560593    C 78.98958086967468,61.5729124546051 63.989581763744354,62.2395738363266 61.989581882953644,62.57290452718735    C 68.3229148387909,58.572907745838165 63.32291513681412,38.57290959358215 84.6562471985817,44.57290476560593    Z    M 85.65624713897705,50.90624487400055    C 96.98957979679108,77.23958313465118 63.656248450279236,73.57290279865265 61.989581882953644,68.23958325386047    C 64.65624839067459,66.90624624490738 79.65624749660492,63.572910845279694 85.65624713897705,50.90624487400055    Z    M 95.6562465429306,46.57290315628052    C 117.3229119181633,43.57291269302368 108.98957908153534,72.23958003520966 107.32291251420975,74.90623980760574    C 105.65624594688416,70.90624302625656 80.32291412353516,52.239581882953644 95.6562465429306,46.57290315628052    Z    M 104.32291269302368,42.906237065792084    C 134.32291090488434,40.572907984256744 117.98957854509354,70.90624302625656 115.32291203737259,70.90624302625656    C 112.65624552965164,70.90624302625656 120.32291173934937,48.57291579246521 104.32291269302368,42.906237065792084    Z    M 139.32291060686111,61.90624314546585    C 137.3229107260704,63.572910845279694 137.3229107260704,68.90624463558197 137.3229107260704,68.90624463558197    C 137.3229107260704,68.90624463558197 121.32291167974472,69.90623670816422 124.32291150093079,58.906238436698914    C 126.3229113817215,63.572910845279694 141.32291048765182,60.23957544565201 139.32291060686111,61.90624314546585    Z    M 124.98957812786102,51.2395755648613    C 129.65624451637268,51.572906255722046 128.65624457597733,42.572906374931335 141.98957711458206,46.57290315628052    C 138.32291066646576,50.5729141831398 139.65624392032623,55.23957234621048 139.65624392032623,55.23957234621048    C 139.65624392032623,55.23957234621048 126.3229113817215,61.239581763744354 124.98957812786102,51.2395755648613    Z    M 178.6562415957451,42.40624815225601    C 181.15624862909317,52.40624010562897 189.656240940094,50.406241714954376 189.656240940094,50.406241714954376    C 189.656240940094,50.406241714954376 174.15624904632568,56.90624004602432 166.15624952316284,68.90624463558197    C 164.15624964237213,67.90623831748962 157.15623569488525,57.90624636411667 178.6562415957451,42.40624815225601    Z    M 184.65624123811722,60.906236827373505    C 188.32290768623352,60.906236827373505 194.9895739555359,65.90623992681503 184.98957455158234,65.90623992681503    C 174.98957514762878,65.90623992681503 180.98957479000092,60.906236827373505 184.65624123811722,60.906236827373505    Z    M 171.32290869951248,77.90624451637268    C 169.989575445652,72.23958003520966 171.6562420129776,72.5729107260704 176.65624171495438,66.90624624490738    C 178.32290828227997,72.5729107260704 187.9895743727684,70.90624302625656 187.9895743727684,70.90624302625656    C 187.9895743727684,70.90624302625656 185.65624117851257,75.57291543483734 187.32290774583817,80.23957359790802    C 187.65624105930328,80.90624922513962 172.65624195337296,83.5729089975357 171.32290869951248,77.90624451637268    Z    M 189.9895742535591,107.23957324028015    C 189.9895742535591,107.23957324028015 189.32290762662888,126.90624070167542 180.6562414765358,125.57290369272232    C 168.32290887832642,124.23958092927933 171.6562420129776,106.9062425494194 171.98957532644272,106.57291185855865    C 177.3229083418846,109.57291656732559 189.9895742535591,107.23957324028015 189.9895742535591,107.23957324028015    Z    M 201.65624022483826,156.57291436195374    C 177.3229083418846,161.906248152256 179.65624153614044,146.23957747220993 171.98957532644272,144.23957908153534    C 174.32290852069855,136.90624690055847 192.65624076128006,133.90624219179153 201.65624022483826,156.57291436195374    Z    M 193.98957401514053,163.239570915699    C 195.98957389593124,165.9062449336052 179.32290822267532,178.2395802140236 177.3229083418846,184.23957538604736    C 175.98957508802414,183.23956906795502 172.32290863990784,155.5729080438614 193.98957401514053,163.239570915699    Z    M 200.6562402844429,162.90624022483826    C 202.98957347869873,180.90623998641968 194.65624064207077,191.23957687616348 181.65624141693115,186.90624940395355    C 175.3229084610939,183.57291400432587 193.3229073882103,172.23957079648972 200.6562402844429,162.90624022483826    Z    M 174.65624183416367,135.23957920074463    C 194.65624064207077,120.23956990242004 205.32290667295456,132.2395744919777 201.65624022483826,147.57291448116302    C 198.6562404036522,145.57291609048843 194.9895739555359,135.57290989160538 174.65624183416367,135.23957920074463    Z    M 200.98957359790802,185.57291239500046    C 201.65624022483826,183.90624469518661 203.65624010562897,185.2395817041397 204.3229067325592,186.23957377672195    C 184.98957455158234,192.90624457597733 212.98957288265228,227.90623778104782 204.65624004602432,236.90623766183853    C 204.98957335948944,236.23957628011703 201.98957353830338,237.23958259820938 202.6562401652336,236.90623766183853    C 206.65623992681503,222.9062489271164 182.6562413573265,192.90624457597733 200.98957359790802,185.57291239500046    Z    M 228.32290530204773,179.57290297746658    C 228.32290530204773,179.57290297746658 201.65624022483826,188.5729028582573 207.32290655374527,160.23958045244217    C 211.3229063153267,175.90623688697815 228.32290530204773,179.57290297746658 228.32290530204773,179.57290297746658    Z    M 208.98957312107086,157.90623712539673    C 210.32290637493134,156.90624505281448 212.65623956918716,156.57291436195374 215.3229060769081,151.5729112625122    C 231.6562384366989,150.9062498807907 230.65623849630356,176.9062432050705 230.65623849630356,176.9062432050705    C 230.65623849630356,176.9062432050705 211.6562396287918,171.23957872390747 208.98957312107086,157.90623712539673    Z    M 204.98957335948944,100.23957175016403    C 2041.98957335948944,100.23957175016403 205.9895732998848,97.57291197776794 2061.98957324028015,97.90624266862869    C 239.98957127332687,122.57291322946548 2061.65623992681503,157.90623712539673 206.65623992681503,157.90623712539673    C 2061.65623992681503,157.90623712539673 203.98957341909409,156.90624505281448 2013.98957341909409,156.23956942558289    C 234.9895715713501,119.9062392115593 2041.98957335948944,100.23957175016403 204.98957335948944,100.23957175016403    Z    M 2210.98957240581512,111.57291495800018    C 228.98957192897797,118.23957151174545 2129.98957186937332,115.90624243021011 234.32290494441986,115.90624243021011    C 236.6562381386757,122.57291322946548 223.65623891353607,135.23957920074463 220.98957240581512,111.57291495800018    Z" style="fill: rgb(255, 91, 128);"/>
</svg>